<svg aria-hidden="true" style="position: absolute; width: 0; height: 0; overflow: hidden;" version="1.1" xmlns="http://www.w3.org/2000/svg" xmlns:xlink="http://www.w3.org/1999/xlink">
    <defs>
        <symbol id="icon-burger-btn" viewBox="0 0 24 24">
            <path d="M0 2.56c0-0.679 0.27-1.33 0.75-1.81s1.131-0.75 1.81-0.75h30.72c0.679 0 1.33 0.27 1.81 0.75s0.75 1.131 0.75 1.81-0.27 1.33-0.75 1.81c-0.48 0.48-1.131 0.75-1.81 0.75h-30.72c-0.679 0-1.33-0.27-1.81-0.75s-0.75-1.131-0.75-1.81z"></path>
            <path d="M0 15.36c0-0.679 0.27-1.33 0.75-1.81s1.131-0.75 1.81-0.75h30.72c0.679 0 1.33 0.27 1.81 0.75s0.75 1.131 0.75 1.81-0.27 1.33-0.75 1.81c-0.48 0.48-1.131 0.75-1.81 0.75h-30.72c-0.679 0-1.33-0.27-1.81-0.75s-0.75-1.131-0.75-1.81z"></path>
            <path d="M0 28.16c0-0.679 0.27-1.33 0.75-1.81s1.131-0.75 1.81-0.75h30.72c0.679 0 1.33 0.27 1.81 0.75s0.75 1.131 0.75 1.81-0.27 1.33-0.75 1.81c-0.48 0.48-1.131 0.75-1.81 0.75h-30.72c-0.679 0-1.33-0.27-1.81-0.75s-0.75-1.131-0.75-1.81z"></path>
        </symbol>

        <symbol id="icon-check" viewBox="0 0 40 32">
            <path fill="#f4f4fd" style="fill: var(--color1, #f4f4fd)" d="M33.782 1.020c0.691-0.662 1.611-1.027 2.565-1.020s1.869 0.387 2.55 1.059c0.681 0.672 1.076 1.584 1.101 2.543s-0.321 1.891-0.966 2.598l-19.578 24.617c-0.337 0.365-0.743 0.657-1.195 0.86s-0.939 0.312-1.434 0.322c-0.495 0.009-0.986-0.082-1.445-0.268s-0.876-0.463-1.226-0.815l-12.984-13.054c-0.362-0.339-0.652-0.747-0.853-1.201s-0.309-0.944-0.318-1.441 0.082-0.99 0.267-1.451c0.185-0.461 0.461-0.879 0.81-1.231s0.766-0.628 1.224-0.814 0.949-0.277 1.443-0.269c0.494 0.009 0.981 0.118 1.433 0.32s0.858 0.494 1.195 0.857l10.275 10.325 17.042-21.83c0.031-0.038 0.063-0.074 0.098-0.109h-0.005z"></path>
        </symbol>

        <symbol id="icon-send" viewBox="0 0 38 32">
            <path fill="#fff" style="fill: var(--color1, #fff)" d="M38.4 0l-38.4 18 12.272 3.788 18.928-14.788-14.397 16.186 0.012 0.004-0.014-0.004v8.814l6.882-6.691 8.718 2.691 6-28z"></path>
        </symbol>

        <symbol id="icon-close" viewBox="0 0 32 32">
            <path d="M32 3.223l-3.223-3.223-12.777 12.777-12.777-12.777-3.223 3.223 12.777 12.777-12.777 12.777 3.223 3.223 12.777-12.777 12.777 12.777 3.223-3.223-12.777-12.777 12.777-12.777z"></path>
        </symbol>

        <symbol id="icon-name" viewBox="0 0 32 32">
            <path d="M16 16c4.42 0 8-3.58 8-8s-3.58-8-8-8c-4.42 0-8 3.58-8 8s3.58 8 8 8zM16 20c-5.34 0-16 2.68-16 8v2c0 1.1 0.9 2 2 2h28c1.1 0 2-0.9 2-2v-2c0-5.32-10.66-8-16-8z"></path>
        </symbol>

        <symbol id="icon-mail" viewBox="0 0 40 32">
            <path d="M36 0h-32c-2.2 0-3.98 1.8-3.98 4l-0.020 24c0 2.2 1.8 4 4 4h32c2.2 0 4-1.8 4-4v-24c0-2.2-1.8-4-4-4zM35.2 8.5l-14.14 8.84c-0.64 0.4-1.48 0.4-2.12 0l-14.14-8.84c-0.5-0.32-0.8-0.86-0.8-1.44 0-1.34 1.46-2.14 2.6-1.44l13.4 8.38 13.4-8.38c1.14-0.7 2.6 0.1 2.6 1.44 0 0.58-0.3 1.12-0.8 1.44z"></path>
        </symbol>

        <symbol id="icon-phone" viewBox="0 0 32 32">
            <path d="M28.865 21.822l-4.525-0.517c-1.087-0.125-2.155 0.249-2.921 1.015l-3.278 3.278c-5.041-2.565-9.174-6.68-11.739-11.739l3.296-3.296c0.766-0.766 1.14-1.835 1.015-2.921l-0.517-4.489c-0.214-1.799-1.728-3.153-3.545-3.153h-3.082c-2.013 0-3.687 1.675-3.563 3.687 0.944 15.213 13.111 27.362 28.306 28.306 2.013 0.125 3.687-1.55 3.687-3.563v-3.082c0.018-1.799-1.336-3.313-3.135-3.527z"></path>
        </symbol>

        <symbol id="icon-Diligence" viewBox="0 0 32 32">
            <path d="M1.599 28.043h25.587c0.883 0 1.599-0.716 1.599-1.599v-2.132c0-0.883-0.716-1.599-1.599-1.599h-0.533v-13.293l3.028-2.868c0.703 0.346 1.553 0.136 2.013-0.499s0.396-1.508-0.152-2.068-1.42-0.644-2.065-0.198c-0.644 0.446-0.873 1.292-0.542 2.002l-2.281 2.163v-1.23c0-0.883-0.716-1.599-1.599-1.599h-21.322c-0.883 0-1.599 0.716-1.599 1.599v15.992h-0.533c-0.883 0-1.599 0.716-1.599 1.599v2.132c0 0.883 0.716 1.599 1.599 1.599zM30.384 4.588c0.294 0 0.533 0.239 0.533 0.533s-0.239 0.533-0.533 0.533c-0.294 0-0.533-0.239-0.533-0.533s0.239-0.533 0.533-0.533zM3.198 6.721c0-0.294 0.239-0.533 0.533-0.533h21.322c0.294 0 0.533 0.239 0.533 0.533v2.239l-1.066 1.013v-2.186c0-0.294-0.239-0.533-0.533-0.533h-19.19c-0.294 0-0.533 0.239-0.533 0.533v13.326c0 0.294 0.239 0.533 0.533 0.533h19.19c0.294 0 0.533-0.239 0.533-0.533v-9.674l1.066-1.010v12.284h-22.388v-15.992zM7.996 13.65c-0.721-0.002-1.354 0.478-1.546 1.174s0.105 1.433 0.725 1.801c0.62 0.368 1.41 0.276 1.928-0.226l1.853 0.93c0.215 0.108 0.476 0.057 0.636-0.123l3.939-4.431 3.872 2.901c0.208 0.156 0.498 0.139 0.686-0.039l3.365-3.188v8.131h-18.124v-12.26h18.124v2.66l-3.771 3.572-3.904-2.927c-0.222-0.166-0.534-0.135-0.718 0.072l-3.993 4.493-1.493-0.746c0.011-0.064 0.018-0.129 0.020-0.193 0-0.883-0.716-1.599-1.599-1.599zM8.529 15.249c0 0.294-0.239 0.533-0.533 0.533s-0.533-0.239-0.533-0.533c0-0.294 0.239-0.533 0.533-0.533s0.533 0.239 0.533 0.533zM11.727 23.778h5.331v0.533c0 0.294-0.239 0.533-0.533 0.533h-4.264c-0.294 0-0.533-0.239-0.533-0.533v-0.533zM1.066 24.311c0-0.294 0.239-0.533 0.533-0.533h9.062v0.533c0 0.883 0.716 1.599 1.599 1.599h4.264c0.883 0 1.599-0.716 1.599-1.599v-0.533h9.062c0.294 0 0.533 0.239 0.533 0.533v2.132c0 0.294-0.239 0.533-0.533 0.533h-25.587c-0.294 0-0.533-0.239-0.533-0.533v-2.132z"></path>
        </symbol>

        <symbol id="icon-facebook" viewBox="0 0 32 32">
            <path fill="#f4f4fd" style="fill: var(--color1, #f4f4fd)" d="M21.329 5.313h2.921v-5.088c-0.504-0.069-2.237-0.225-4.256-0.225-4.212 0-7.097 2.649-7.097 7.519v4.481h-4.648v5.688h4.648v14.312h5.699v-14.311h4.46l0.708-5.688h-5.169v-3.919c0.001-1.644 0.444-2.769 2.735-2.769z"></path>
        </symbol>

        <symbol id="icon-instagram" viewBox="0 0 32 32">
            <path fill="#f4f4fd" style="fill: var(--color1, #f4f4fd)" d="M31.969 9.408c-0.075-1.7-0.35-2.869-0.744-3.882-0.406-1.075-1.031-2.038-1.851-2.838-0.8-0.813-1.769-1.444-2.832-1.844-1.019-0.394-2.181-0.669-3.882-0.744-1.713-0.081-2.257-0.1-6.601-0.1s-4.888 0.019-6.595 0.094c-1.7 0.075-2.869 0.35-3.882 0.744-1.075 0.406-2.038 1.031-2.838 1.85-0.813 0.8-1.444 1.769-1.844 2.832-0.394 1.019-0.669 2.182-0.744 3.882-0.081 1.713-0.1 2.257-0.1 6.601s0.019 4.888 0.094 6.595c0.075 1.7 0.35 2.869 0.744 3.882 0.406 1.075 1.038 2.038 1.85 2.838 0.8 0.813 1.769 1.444 2.832 1.844 1.019 0.394 2.182 0.669 3.882 0.744 1.706 0.075 2.25 0.094 6.595 0.094s4.888-0.019 6.595-0.094c1.7-0.075 2.869-0.35 3.882-0.744 2.151-0.831 3.851-2.532 4.682-4.682 0.394-1.019 0.669-2.182 0.744-3.882 0.075-1.707 0.094-2.25 0.094-6.595s-0.006-4.888-0.081-6.595zM29.087 22.473c-0.069 1.563-0.331 2.407-0.55 2.969-0.538 1.394-1.644 2.5-3.038 3.038-0.563 0.219-1.413 0.481-2.969 0.55-1.688 0.075-2.194 0.094-6.464 0.094s-4.782-0.019-6.464-0.094c-1.563-0.069-2.407-0.331-2.969-0.55-0.694-0.256-1.325-0.663-1.838-1.194-0.531-0.519-0.938-1.144-1.194-1.838-0.219-0.563-0.481-1.413-0.55-2.969-0.075-1.688-0.094-2.194-0.094-6.464s0.019-4.782 0.094-6.464c0.069-1.563 0.331-2.407 0.55-2.969 0.256-0.694 0.663-1.325 1.2-1.838 0.519-0.531 1.144-0.938 1.838-1.194 0.563-0.219 1.413-0.481 2.969-0.55 1.688-0.075 2.194-0.094 6.464-0.094 4.276 0 4.782 0.019 6.464 0.094 1.563 0.069 2.407 0.331 2.969 0.55 0.694 0.256 1.325 0.662 1.838 1.194 0.531 0.519 0.938 1.144 1.194 1.838 0.219 0.563 0.481 1.413 0.55 2.969 0.075 1.688 0.094 2.194 0.094 6.464s-0.019 4.77-0.094 6.458z"></path>
            <path fill="#f4f4fd" style="fill: var(--color1, #f4f4fd)" d="M16.059 7.783c-4.538 0-8.22 3.682-8.22 8.22s3.682 8.22 8.22 8.22c4.539 0 8.22-3.682 8.22-8.22s-3.682-8.22-8.22-8.22zM16.059 21.335c-2.944 0-5.332-2.388-5.332-5.332s2.388-5.332 5.332-5.332c2.945 0 5.332 2.388 5.332 5.332s-2.388 5.332-5.332 5.332z"></path>
            <path fill="#f4f4fd" style="fill: var(--color1, #f4f4fd)" d="M26.524 7.458c0 1.060-0.859 1.919-1.919 1.919s-1.919-0.859-1.919-1.919c0-1.060 0.859-1.919 1.919-1.919s1.919 0.859 1.919 1.919z"></path>
        </symbol>

        <symbol id="icon-linkedin" viewBox="0 0 32 32">
            <path fill="#f4f4fd" style="fill: var(--color1, #f4f4fd)" d="M31.992 32v-0.001h0.008v-11.736c0-5.741-1.236-10.164-7.948-10.164-3.227 0-5.392 1.771-6.276 3.449h-0.093v-2.913h-6.364v21.364h6.627v-10.579c0-2.785 0.528-5.479 3.977-5.479 3.399 0 3.449 3.179 3.449 5.657v10.401h6.62z"></path>
            <path fill="#f4f4fd" style="fill: var(--color1, #f4f4fd)" d="M0.528 10.636h6.635v21.364h-6.635v-21.364z"></path>
            <path fill="#f4f4fd" style="fill: var(--color1, #f4f4fd)" d="M3.843 0c-2.121 0-3.843 1.721-3.843 3.843s1.721 3.879 3.843 3.879c2.121 0 3.843-1.757 3.843-3.879-0.001-2.121-1.723-3.843-3.843-3.843v0z"></path>
        </symbol>

        <symbol id="icon-Punctuality" viewBox="0 0 31 32">
            <path d="M30.609 15.301c-0.002-8.452-6.855-15.303-15.308-15.301s-15.303 6.855-15.301 15.308c0.001 6.658 4.307 12.551 10.649 14.576 0.061 0.019 0.124 0.029 0.187 0.029 0.121-0 0.239-0.032 0.342-0.094 0.135-0.080 0.236-0.207 0.283-0.356l3.865-12.25c1.057-0.005 1.909-0.866 1.903-1.923s-0.866-1.909-1.923-1.903c-0.284 0.001-0.565 0.067-0.82 0.191l-5.106-5.107c-0.253-0.245-0.657-0.238-0.902 0.016-0.239 0.247-0.239 0.639 0 0.886l5.103 5.109c-0.392 0.799-0.168 1.764 0.536 2.309l-3.683 11.673c-7.278-2.681-11.004-10.754-8.323-18.032s10.754-11.004 18.032-8.323c7.278 2.681 11.004 10.754 8.323 18.032-1.31 3.556-4.001 6.431-7.462 7.973l-0.398-1.874c-0.073-0.345-0.411-0.565-0.756-0.492-0.109 0.023-0.209 0.074-0.293 0.148l-3.837 3.426c-0.263 0.234-0.287 0.637-0.052 0.9 0.076 0.085 0.174 0.149 0.283 0.184l4.899 1.564c0.335 0.108 0.694-0.077 0.802-0.412 0.034-0.106 0.040-0.219 0.017-0.328l-0.391-1.839c5.664-2.388 9.342-7.942 9.329-14.089zM15.305 14.664c0.352 0 0.638 0.286 0.638 0.638s-0.286 0.638-0.638 0.638c-0.352 0-0.638-0.285-0.638-0.638s0.285-0.638 0.638-0.638zM17.405 29.528l2.184-1.948 0.603 2.84-2.787-0.892z"></path>
        </symbol>

        <symbol id="icon-Strategy" viewBox="0 0 30 32">
            <path fill="#2e2f42" style="fill: var(--color2, #2e2f42)" d="M29.702 22.098l-8.443-8.505 0.937-4.615c0.242 0.094 0.499 0.144 0.758 0.146h0.006c1.192 0.014 2.17-0.941 2.184-2.133s-0.941-2.17-2.133-2.184c-1.192-0.014-2.17 0.941-2.184 2.133-0.003 0.255 0.039 0.509 0.125 0.749l-4.96 0.605-8.091-8.133c-0.099-0.101-0.235-0.159-0.377-0.16-0.14 0.001-0.274 0.056-0.373 0.155l-1.513 1.504c-0.208 0.208-0.208 0.546 0 0.754l0.814 0.826c-3.153 5.798-2.129 12.978 2.519 17.663 0.043 0.041 0.092 0.074 0.146 0.098-0.034 0.18-0.051 0.364-0.052 0.547v6.187h-6.4c-1.472 0.002-2.665 1.195-2.667 2.667v1.067c0 0.295 0.239 0.533 0.533 0.533h24.533c0.295 0 0.533-0.239 0.533-0.533v-1.067c-0.002-1.472-1.195-2.665-2.667-2.667h-6.4v-2.742c1.003 0.21 2.024 0.317 3.049 0.32 2.458-0.003 4.877-0.615 7.040-1.783l0.818 0.823c0.099 0.101 0.235 0.159 0.377 0.16 0.14-0.001 0.274-0.056 0.373-0.155l1.513-1.504c0.208-0.208 0.208-0.546 0-0.754zM22.209 6.233c0.418-0.415 1.093-0.414 1.509 0.004s0.414 1.093-0.004 1.508c-0.2 0.199-0.47 0.31-0.752 0.31h-0.003c-0.589-0.003-1.064-0.483-1.061-1.072 0.002-0.282 0.115-0.552 0.314-0.751h-0.002zM20.954 9.738l-0.598 2.946-1.175-1.182 1.774-1.763zM20.348 8.836l-1.92 1.909-1.485-1.493 3.405-0.415zM22.933 28.8c0.884 0 1.6 0.716 1.6 1.6v0.533h-23.467v-0.533c0-0.884 0.716-1.6 1.6-1.6h20.267zM15.467 26.667v1.067h-5.333v-1.067h5.333zM10.133 25.6v-4.053c0-1.294 1.196-2.347 2.667-2.347s2.667 1.053 2.667 2.347v4.053h-5.333zM16.533 23.904v-2.357c0-1.882-1.675-3.413-3.733-3.413-1.331-0.020-2.576 0.657-3.281 1.786-4.058-4.274-4.971-10.645-2.279-15.887l18.602 18.708c-2.872 1.461-6.165 1.873-9.309 1.163zM27.822 23.22l-21.057-21.181 0.755-0.752 7.935 7.98c0.004 0 0.006 0.007 0.010 0.010l13.115 13.191-0.757 0.752z"></path>
            <path fill="#4d5ae5" style="fill: var(--color3, #4d5ae5)" d="M12.805 20.267h-0.005c-0.884-0.001-1.601 0.714-1.602 1.598s0.714 1.601 1.598 1.602h0.005c0.884 0.001 1.601-0.714 1.602-1.598s-0.714-1.601-1.598-1.602zM13.178 22.245c-0.1 0.1-0.236 0.156-0.378 0.155-0.295-0.002-0.532-0.242-0.531-0.536 0.001-0.141 0.057-0.276 0.157-0.375s0.233-0.154 0.373-0.155c0.295 0.002 0.532 0.242 0.531 0.536-0.001 0.141-0.057 0.276-0.157 0.375h0.005z"></path>
        </symbol>

        <symbol id="icon-Technologies" viewBox="0 0 32 32">
            <path d="M29.674 13.451c-0.328-0.443-0.811-0.728-1.358-0.805-0.55-0.078-1.092 0.066-1.531 0.402l-1.431 1.097-2.169 1.62-1.552-0.618c2.767-1.242 4.701-4.009 4.701-7.223 0-4.369-3.569-7.924-7.956-7.924s-7.956 3.555-7.956 7.924c0 1.584 0.474 3.056 1.28 4.295l-3.159-0.027c-0.002 0-0.004 0-0.005 0-0.010 0-0.018 0.005-0.027 0.005-0.060 0.002-0.12 0.015-0.177 0.035-0.015 0.005-0.030 0.009-0.044 0.015-0.007 0.003-0.015 0.004-0.022 0.007l-3.695 1.824c-0.001 0-0.001 0-0.001 0.001l-2.164 1.041c-0.024 0.010-0.048 0.024-0.072 0.040-0.863 0.574-1.156 1.702-0.684 2.623 0.252 0.49 0.68 0.851 1.207 1.016 0.203 0.063 0.41 0.095 0.616 0.095 0.331 0 0.659-0.081 0.959-0.241l1.586-0.844 2.587-1.336 1.551-0.009-6.219 6.189c-0.001 0.001-0.001 0.001-0.002 0.001l-1.53 1.524c-0.361 0.36-0.56 0.837-0.56 1.346s0.199 0.987 0.56 1.347c0.371 0.369 0.859 0.555 1.348 0.555s0.976-0.185 1.349-0.555l1.502-1.496 1.989-1.485 1.030 1.025-2.013 2.005c-0.001 0.001-0.001 0.001-0.002 0.001l-1.53 1.524c-0.361 0.36-0.56 0.837-0.56 1.346s0.199 0.987 0.56 1.347c0.371 0.369 0.86 0.555 1.348 0.555s0.977-0.185 1.349-0.555l3.979-3.962c0.001-0.001 0.001-0.001 0.001-0.002l1.154-1.143-0.004-0.004c0.007-0.007 0.018-0.010 0.025-0.018l5.904-6.467 3.967 0.564c0.029 0.004 0.057 0.006 0.086 0.006 0.074 0 0.145-0.018 0.214-0.044 0.020-0.007 0.038-0.017 0.057-0.027 0.022-0.011 0.045-0.017 0.066-0.031l3.672-2.438c0.013-0.009 0.021-0.024 0.034-0.034 0.015-0.012 0.033-0.016 0.046-0.029l1.453-1.361c0.756-0.708 0.86-1.869 0.242-2.699zM3.863 17.578c-0.198 0.106-0.423 0.127-0.638 0.059-0.213-0.066-0.386-0.212-0.488-0.409-0.184-0.358-0.077-0.795 0.245-1.031l1.501-0.722 0.513 1.5-1.134 0.603zM7.86 15.489l-1.769 0.914-0.502-1.467 2.316-1.143-0.045 1.696zM25.116 7.923c0 1.050-0.25 2.040-0.684 2.925l-4.779-2.171c-0.050-0.655-0.39-1.229-0.901-1.586l1.673-5.555c2.717 0.864 4.691 3.399 4.691 6.386zM11.643 7.923c0-3.697 3.022-6.705 6.737-6.705 0.289 0 0.572 0.024 0.852 0.060l-1.637 5.433c-0.022-0.001-0.043-0.007-0.065-0.007-1.18 0-2.14 0.957-2.14 2.133s0.96 2.133 2.14 2.133c0.794 0 1.479-0.438 1.849-1.080l4.414 2.005c-1.228 1.653-3.194 2.731-5.413 2.731-3.714 0-6.736-3.008-6.736-6.705zM18.451 8.837c0 0.504-0.413 0.914-0.921 0.914s-0.921-0.41-0.921-0.914c0-0.504 0.413-0.914 0.921-0.914s0.921 0.41 0.921 0.914zM4.246 26.008c-0.27 0.268-0.707 0.267-0.976 0.001-0.13-0.13-0.201-0.301-0.201-0.483s0.071-0.353 0.201-0.482l1.1-1.095 0.973 0.969-1.096 1.091zM7.918 30.274c-0.27 0.268-0.708 0.268-0.977 0.001-0.13-0.13-0.201-0.301-0.201-0.483s0.071-0.353 0.201-0.482l1.1-1.096 0.973 0.969-1.097 1.092zM11.898 26.31c-0.001 0.001-0.001 0.001-0.002 0.001l-2.017 2.011-0.973-0.969 2.015-2.006c0 0 0 0 0-0.001s0.001-0.001 0.002-0.001c0.046-0.046 0.074-0.101 0.102-0.155 0.008-0.016 0.023-0.029 0.030-0.046 0.019-0.047 0.022-0.098 0.029-0.147 0.004-0.028 0.016-0.054 0.016-0.083 0-0.041-0.015-0.080-0.023-0.121-0.007-0.037-0.007-0.074-0.021-0.109-0.023-0.057-0.063-0.108-0.104-0.157-0.012-0.013-0.016-0.030-0.029-0.043 0 0 0 0-0.001 0s-0.001-0.002-0.001-0.002l-1.837-1.829c-0.020-0.020-0.044-0.027-0.066-0.044-0.032-0.025-0.063-0.048-0.099-0.066-0.035-0.017-0.070-0.027-0.107-0.037-0.039-0.011-0.077-0.020-0.118-0.023-0.037-0.002-0.072 0.001-0.109 0.006-0.041 0.005-0.079 0.010-0.119 0.023-0.038 0.012-0.072 0.031-0.108 0.051-0.023 0.013-0.048 0.017-0.070 0.033l-2.027 1.513-1.030-1.025 2.742-2.727 4.984 4.901-1.060 1.050zM19.691 18.291c-0.018-0.002-0.034 0.004-0.052 0.003-0.044-0.002-0.087 0.001-0.132 0.008-0.035 0.006-0.068 0.013-0.101 0.024-0.039 0.013-0.074 0.032-0.11 0.054-0.034 0.021-0.065 0.043-0.095 0.070-0.015 0.013-0.032 0.019-0.046 0.034l-5.369 5.881-4.946-4.865 3.238-3.221c0.238-0.238 0.24-0.624 0.002-0.863-0.12-0.12-0.278-0.179-0.436-0.179v-0.001l-2.536 0.015 0.032-1.837 3.547 0.030c1.446 1.479 3.462 2.401 5.693 2.401 0.5 0 0.988-0.052 1.462-0.14 0.046 0.037 0.091 0.074 0.148 0.097l2.754 1.097 0.174 0.867 0.204 1.012-3.432-0.488zM24.309 18.494l-0.358-1.78 1.653-1.234 1.082 1.436-2.377 1.579zM28.599 15.259l-0.958 0.897-1.064-1.413 0.95-0.728c0.177-0.136 0.401-0.192 0.62-0.163 0.221 0.031 0.416 0.146 0.549 0.325 0.247 0.333 0.205 0.799-0.098 1.082z"></path>
        </symbol>

        <symbol id="icon-twitter" viewBox="0 0 32 32">
            <path fill="#f4f4fd" style="fill: var(--color1, #f4f4fd)" d="M32 6.078c-1.19 0.522-2.458 0.868-3.78 1.036 1.36-0.812 2.398-2.088 2.886-3.626-1.268 0.756-2.668 1.29-4.16 1.588-1.204-1.282-2.92-2.076-4.792-2.076-3.632 0-6.556 2.948-6.556 6.562 0 0.52 0.044 1.020 0.152 1.496-5.454-0.266-10.28-2.88-13.522-6.862-0.566 0.982-0.898 2.106-0.898 3.316 0 2.272 1.17 4.286 2.914 5.452-1.054-0.020-2.088-0.326-2.964-0.808 0 0.020 0 0.046 0 0.072 0 3.188 2.274 5.836 5.256 6.446-0.534 0.146-1.116 0.216-1.72 0.216-0.42 0-0.844-0.024-1.242-0.112 0.85 2.598 3.262 4.508 6.13 4.57-2.232 1.746-5.066 2.798-8.134 2.798-0.538 0-1.054-0.024-1.57-0.090 2.906 1.874 6.35 2.944 10.064 2.944 12.072 0 18.672-10 18.672-18.668 0-0.29-0.010-0.57-0.024-0.848 1.302-0.924 2.396-2.078 3.288-3.406z"></path>
        </symbol>
        
    </defs>
</svg>
